<?xml version="1.0" encoding="UTF-8"?>
<svg width="480px" height="416px" viewBox="0 0 480 416" version="1.1" xmlns="http://www.w3.org/2000/svg" xmlns:xlink="http://www.w3.org/1999/xlink">
    <!-- Generator: Sketch 63.1 (92452) - https://sketch.com -->
    <title>book-outline</title>
    <desc>Created with Sketch.</desc>
    <g id="Page-1" stroke="none" stroke-width="1" fill="none" fill-rule="evenodd">
        <g id="book-outline" fill="#000000" fill-rule="nonzero">
            <path d="M239.996403,416 C239.887793,415.999975 239.779183,415.998857 239.670591,415.996644 C239.4724,415.992682 239.274421,415.985046 239.077396,415.973844 C239.050633,415.97213 239.023968,415.970539 238.997306,415.968883 C238.487088,415.937545 237.983261,415.882074 237.487016,415.80379 C237.426989,415.793983 237.366601,415.78412 237.306261,415.773912 C237.262172,415.766736 237.21857,415.759155 237.175028,415.751398 C237.147236,415.746212 237.119199,415.741153 237.091173,415.73602 C236.922008,415.705155 236.754084,415.671488 236.587133,415.635215 L236.533865,415.623716 C236.461042,415.607695 236.388312,415.591163 236.31568,415.57412 C236.303844,415.570956 236.291527,415.568038 236.279215,415.565106 C233.137487,414.820445 230.182067,413.11781 227.890077,410.457602 C227.725257,410.266761 227.564545,410.071738 227.408441,409.872926 L227.001961,409.367985 C212.151394,391.0036 193.969537,378.159466 167.33455,368.854848 C135.497901,357.733091 91.7564883,352 32,352 C13.0285041,352 -0.000225593369,336.69801 -0.000225593369,318.07 L-0.000225593369,318.07 L-0.000225593369,32.0599121 C-0.0318768723,23.5473627 3.33556573,15.3742264 9.35489606,9.35489606 C15.3742264,3.33556573 23.5473627,-0.0318768723 32.071762,-0.00022559337 C99.5114255,0.302525618 149.935383,8.75554353 186.236371,26.0993795 C209.595699,37.2599665 227.298917,52.215563 239.543801,71.0014261 L239.543801,71.0014261 L240,71.708 L240.456199,71.0014261 C252.50672,52.5137513 269.84367,37.7357124 292.655554,26.6337046 L292.655554,26.6337046 L293.763629,26.0993795 C330.064617,8.75554353 380.488574,0.302525618 447.928238,-0.00022559337 L447.928238,-0.00022559337 L447.940088,-0.00022559337 C456.452637,-0.0318768723 464.625774,3.33556573 470.645104,9.35489606 C476.664434,15.3742264 480.031877,23.5473627 480.000336,32 L480.000336,32 L480.000336,320 C480.000336,337.673125 465.673099,352 448,352 C388.188024,352 344.501472,357.701328 312.726302,368.785919 C285.805931,378.176941 267.527048,391.202457 252.49422,409.994722 L252.515998,409.968413 C252.43936,410.06451 252.361639,410.159704 252.282852,410.253978 C252.179227,410.377847 252.074384,410.499898 251.968171,410.61994 C251.939289,410.651779 251.910094,410.684391 251.880768,410.716881 C249.693906,413.149933 246.93891,414.742202 244.008266,415.494555 C243.969331,415.503844 243.930293,415.513756 243.891199,415.523524 C243.738715,415.562063 243.585626,415.597752 243.432132,415.63117 C242.954482,415.735416 242.468809,415.818484 241.976204,415.879162 C241.938983,415.88335 241.901931,415.887785 241.864866,415.892091 C241.695236,415.912172 241.524727,415.929216 241.353451,415.943563 C241.320868,415.945998 241.288781,415.948596 241.256689,415.951098 C241.062008,415.966508 240.865631,415.978188 240.668332,415.986295 C240.60239,415.988913 240.53675,415.991225 240.471101,415.993138 C240.314723,415.997721 240.157628,416 240,416 Z M31.9985533,31.9985533 L31.9998865,318.07 C31.9998865,318.799184 32.0990707,319.418629 32.2607132,319.8946 L32.2607132,319.8946 L32.298,320 L35.5827345,320.006481 C127.699253,320.341518 185.053158,333.676677 224.000204,362.457743 L224.000747,114.067448 C216.737766,87.3999463 200.400523,68.3314928 172.441129,54.9730922 C141.107887,40.0027391 95.05731,32.28287 31.9400879,31.999 L31.9985533,31.9985533 Z M448,31.999 L446.183011,32.0104507 C384.02315,32.4379925 338.578781,40.1524426 307.558871,54.9730922 C279.599477,68.3314928 263.262234,87.3999463 255.999253,114.067448 L255.999621,362.437412 C294.945352,333.611743 352.172069,320.339751 444.413572,320.006445 L444.413572,320.006445 L448,320 L448,31.999 Z"></path>
        </g>
    </g>
</svg>