<?xml version="1.0" encoding="UTF-8"?>
<svg width="448px" height="448px" viewBox="0 0 448 448" version="1.1" xmlns="http://www.w3.org/2000/svg" xmlns:xlink="http://www.w3.org/1999/xlink">
    <!-- Generator: Sketch 63.1 (92452) - https://sketch.com -->
    <title>calendar-outline</title>
    <desc>Created with Sketch.</desc>
    <g id="Page-1" stroke="none" stroke-width="1" fill="none" fill-rule="evenodd">
        <g id="calendar-outline" fill="#000000" fill-rule="nonzero">
            <path d="M384,32 C419.346224,32 448,60.653776 448,96 L448,96 L448,384 C448,419.346224 419.346224,448 384,448 L384,448 L64,448 C28.653776,448 0,419.346224 0,384 L0,384 L0,96 C0,60.653776 28.653776,32 64,32 L64,32 Z M384,144 L64,144 C48,144 32,160 32,176 L32,176 L32,384 C32,401.673112 46.326888,416 64,416 L64,416 L384,416 C401.673112,416 416,401.673112 416,384 L416,384 L416,176 C416,160 400,144 384,144 L384,144 Z M104,336 C117.254834,336 128,346.745166 128,360 C128,373.254834 117.254834,384 104,384 C90.745166,384 80,373.254834 80,360 C80,346.745166 90.745166,336 104,336 Z M184,336 C197.254834,336 208,346.745166 208,360 C208,373.254834 197.254834,384 184,384 C170.745166,384 160,373.254834 160,360 C160,346.745166 170.745166,336 184,336 Z M264,336 C277.254834,336 288,346.745166 288,360 C288,373.254834 277.254834,384 264,384 C250.745166,384 240,373.254834 240,360 C240,346.745166 250.745166,336 264,336 Z M264,256 C277.254834,256 288,266.745166 288,280 C288,293.254834 277.254834,304 264,304 C250.745166,304 240,293.254834 240,280 C240,266.745166 250.745166,256 264,256 Z M344,256 C357.254834,256 368,266.745166 368,280 C368,293.254834 357.254834,304 344,304 C330.745166,304 320,293.254834 320,280 C320,266.745166 330.745166,256 344,256 Z M104,256 C117.254834,256 128,266.745166 128,280 C128,293.254834 117.254834,304 104,304 C90.745166,304 80,293.254834 80,280 C80,266.745166 90.745166,256 104,256 Z M184,256 C197.254834,256 208,266.745166 208,280 C208,293.254834 197.254834,304 184,304 C170.745166,304 160,293.254834 160,280 C160,266.745166 170.745166,256 184,256 Z M264,176 C277.254834,176 288,186.745166 288,200 C288,213.254834 277.254834,224 264,224 C250.745166,224 240,213.254834 240,200 C240,186.745166 250.745166,176 264,176 Z M344,176 C357.254834,176 368,186.745166 368,200 C368,213.254834 357.254834,224 344,224 C330.745166,224 320,213.254834 320,200 C320,186.745166 330.745166,176 344,176 Z M96,0 C104.731359,0 111.829205,6.99390104 111.996964,15.6851293 L112,16 L112,48 C112,56.836556 104.836556,64 96,64 C87.2686411,64 80.1707953,57.006099 80.0030364,48.3148707 L80,48 L80,16 C80,7.163444 87.163444,0 96,0 Z M352,0 C360.731359,0 367.829205,6.99390104 367.996964,15.6851293 L368,16 L368,48 C368,56.836556 360.836556,64 352,64 C343.268641,64 336.170795,57.006099 336.003036,48.3148707 L336,48 L336,16 C336,7.163444 343.163444,0 352,0 Z"></path>
        </g>
    </g>
</svg>