<?xml version="1.0" encoding="UTF-8"?>
<svg width="446px" height="176px" viewBox="0 0 446 176" version="1.1" xmlns="http://www.w3.org/2000/svg" xmlns:xlink="http://www.w3.org/1999/xlink">
    <!-- Generator: Sketch 63.1 (92452) - https://sketch.com -->
    <title>glasses-outline</title>
    <desc>Created with Sketch.</desc>
    <g id="Page-1" stroke="none" stroke-width="1" fill="none" fill-rule="evenodd">
        <g id="glasses-outline" fill="#000000" fill-rule="nonzero">
            <path d="M334,0 C363.630751,0 386.320711,3.24142288 403.059644,8.82106723 L403.059644,8.82106723 L403.68273,9.03071653 C410.208335,11.2470431 415.318095,13.6378595 419.17253,16.000465 L430,16 C438.836556,16 446,23.163444 446,32 C446,40.7313589 439.006099,47.8292047 430.314871,47.9969636 L430,48 L429.837332,48.0021374 C428.889578,92.161252 423.702336,120.261183 411.719887,140.231932 C396.65572,165.338876 371.779765,176 334,176 C296.220235,176 271.34428,165.338876 256.280113,140.231932 C245.443243,122.170482 240.164382,97.4599234 238.552981,60.2341758 C236.860381,53.2143203 230.539125,48 223,48 C215.461864,48 209.141279,53.2129515 207.446571,60.230527 C205.835901,97.4586007 200.557047,122.169999 189.719887,140.231932 C174.65572,165.338876 149.779765,176 112,176 C74.2202349,176 49.3442798,165.338876 34.2801132,140.231932 C22.297664,120.261183 17.1104216,92.161252 16.1626681,48.0021374 L16,48 C7.163444,48 0,40.836556 0,32 C0,23.2686411 6.99390104,16.1707953 15.6851293,16.0030364 L16,16 L26.8274697,16.000465 C30.8037461,13.563176 36.1159649,11.0958642 42.9403557,8.82106723 L42.9403557,8.82106723 L43.5708572,8.61292837 C60.2476223,3.16089378 82.7396333,0 112,0 C141.630751,0 164.320711,3.24142288 181.059644,8.82106723 L181.059644,8.82106723 L181.68273,9.03071653 C192.299585,12.6365763 199.16873,16.704307 202.981448,20.3609753 C209.073625,17.5613593 215.854475,16 223,16 C230.145525,16 236.926375,17.5613593 243.019991,20.3615186 C246.905349,16.6332603 253.968495,12.4783542 264.940356,8.82106723 L264.940356,8.82106723 L265.570857,8.61292837 C282.247622,3.16089378 304.739633,0 334,0 Z M111,32 L110.002027,32.0013238 C84.1428585,32.0701037 65.1528496,34.814531 52.0596443,39.1789328 C50.3245451,39.7572991 48.7810121,40.3362213 47.4185372,40.9060864 L47.4185372,40.9060864 L47.053,41.06 L47.0997774,44.2774239 C47.7806552,84.4474634 51.9712136,108.80424 60.4366284,123.289711 L60.4366284,123.289711 L60.7198868,123.768068 C69.1941818,137.891893 83.4464318,144 111,144 C138.553568,144 152.805818,137.891893 161.280113,123.768068 C170.110097,109.051428 174.382641,83.9019259 174.93753,41.7982249 L174.93753,41.7982249 L174.946,41.06 L174.581463,40.9060864 C173.355235,40.3932078 171.982351,39.872993 170.455149,39.3524497 L170.455149,39.3524497 L169.940356,39.1789328 C156.679289,34.7585771 137.369249,32 111,32 L111,32 Z M335,32 L334.002027,32.0013238 C308.142859,32.0701037 289.15285,34.814531 276.059644,39.1789328 C274.324545,39.7572991 272.781012,40.3362213 271.418537,40.9060864 L271.418537,40.9060864 L271.053,41.06 L271.06247,41.7982249 C271.611392,83.449198 275.79845,108.508618 284.436628,123.289711 L284.436628,123.289711 L284.719887,123.768068 C293.194182,137.891893 307.446432,144 335,144 C362.553568,144 376.805818,137.891893 385.280113,123.768068 C394.110097,109.051428 398.382641,83.9019259 398.93753,41.7982249 L398.93753,41.7982249 L398.946,41.06 L398.581463,40.9060864 C397.355235,40.3932078 395.982351,39.872993 394.455149,39.3524497 L394.455149,39.3524497 L393.940356,39.1789328 C380.679289,34.7585771 361.369249,32 335,32 L335,32 Z"></path>
        </g>
    </g>
</svg>