<?xml version="1.0" encoding="UTF-8"?>
<svg width="480px" height="448px" viewBox="0 0 480 448" version="1.1" xmlns="http://www.w3.org/2000/svg" xmlns:xlink="http://www.w3.org/1999/xlink">
    <!-- Generator: Sketch 63.1 (92452) - https://sketch.com -->
    <title>home-outline</title>
    <desc>Created with Sketch.</desc>
    <g id="Page-1" stroke="none" stroke-width="1" fill="none" fill-rule="evenodd">
        <g id="home-outline" fill="#000000" fill-rule="nonzero">
            <path d="M416,164 C424.731359,164 431.829205,170.993901 432,179.685129 L432,180 L432,416 C432,433.496381 417.958217,447.713128 400.529179,447.995713 L400,448 L304,448 C295.268641,448 288.170795,441.006099 288.003036,432.314871 L288,432 L288,296 C288,291.665086 284.552162,288.135457 280.249179,288.003807 L280,288 L200,288 C195.665086,288 192.135457,291.447838 192.003807,295.750821 L192,296 L192,432 C192,440.731359 185.006099,447.829205 176.314871,447.996964 L176,448 L80,448 C62.5036191,448 48.2868724,433.958217 48.0042871,416.529179 L48,416 L48,180 C48,171.163444 55.163444,164 64,164 C72.7313589,164 79.8292047,170.993901 79.9969636,179.685129 L80,180 L80,416 L160,416 L160,296 C160,274.129524 177.552229,256.35859 199.338527,256.005359 L200,256 L280,256 C301.870476,256 319.64141,273.552229 319.994641,295.338527 L320,296 L320,416 L400,416 L400,180 C400,171.163444 407.163444,164 416,164 Z M217.873409,8.60572697 C229.131672,-2.75362675 250.42362,-2.83198178 261.815692,8.29591223 L262.163,8.643 L475.06397,212.441948 C481.358648,218.467542 481.661181,228.400069 475.808991,234.795851 L475.558052,235.06397 C469.532458,241.358648 459.599931,241.661181 453.204149,235.808991 L452.93603,235.558052 L240.32,32.031 L240.150634,32.0204813 L240.005068,32.0174735 L239.85945,32.0199611 L239.679,32.031 L27.0639699,235.558052 C20.7692915,241.583646 10.8330269,241.452229 4.69885474,235.326376 L4.44194787,235.06397 C-1.58364648,228.769291 -1.45222916,218.833027 4.67362423,212.698855 L4.93603006,212.441948 L217.873409,8.60572697 Z M384,16 C392.731359,16 399.829205,22.993901 399.996964,31.6851293 L400,32 L400,147 C400,155.836556 392.836556,163 384,163 C375.268641,163 368.170795,156.006099 368.003036,147.314871 L368,147 L368,48 L352,48 L352,101 C352,109.731359 345.006099,116.829205 336.314871,116.996964 L336,117 C327.268641,117 320.170795,110.006099 320.003036,101.314871 L320,101 L320,32 C320,23.2686411 326.993901,16.1707953 335.685129,16.0030364 L336,16 L384,16 Z"></path>
        </g>
    </g>
</svg>