<?xml version="1.0" encoding="UTF-8"?>
<svg width="480px" height="352px" viewBox="0 0 480 352" version="1.1" xmlns="http://www.w3.org/2000/svg" xmlns:xlink="http://www.w3.org/1999/xlink">
    <!-- Generator: Sketch 63.1 (92452) - https://sketch.com -->
    <title>people-outline</title>
    <desc>Created with Sketch.</desc>
    <g id="Page-1" stroke="none" stroke-width="1" fill="none" fill-rule="evenodd">
        <g id="people-outline" transform="translate(-1.000000, 0.000000)" fill="#000000" fill-rule="nonzero">
            <path d="M321,0 C271.349636,0 235.435428,38.2941788 239.040069,89.1316424 C242.437823,137.12492 278.641465,176 321,176 C363.337514,176 399.500964,137.144127 402.958639,89.1497126 C406.591126,38.851884 370.427704,0 321,0 Z M321,32 C351.850059,32 373.335593,55.0828128 371.041563,86.8474889 C368.723855,119.018537 345.473422,144 321,144 C296.50627,144 273.235601,119.012206 270.960053,86.8700847 C268.67178,54.5978067 289.86514,32 321,32 Z M321,208 C243.864458,208 178.654136,248.4082 161.934249,315.543339 C157.39909,333.727579 169.867591,352 189.18,352 L452.83,352 C472.131494,352 484.554154,333.762479 480.087501,315.59083 C471.544706,280.739477 450.311486,252.868005 419.709104,234.055747 C391.853006,216.931716 357.206261,208 321,208 Z M321,240 C351.524338,240 380.371894,247.436722 402.950896,261.316753 L403.657353,261.754375 C425.720771,275.526793 440.989159,294.96155 447.967132,319.294749 L448.166,320 L193.863,320 L194.238566,318.716774 C208.869151,270.085726 259.272985,240 321,240 Z M132,32 C90.4920285,32 60.0349254,64.5846942 63.0398734,107.068875 C65.8688739,147.031583 96.3891997,180 132,180 C167.593443,180 198.07993,147.047172 200.958638,107.089729 C203.988365,65.0411757 173.336093,32 132,32 Z M132,64 C154.734798,64 170.737518,81.2499014 169.041372,104.790132 C167.30041,128.955277 149.681081,148 132,148 C114.302083,148 96.6691315,128.952677 94.9600591,104.810171 C93.2664576,80.8659049 109.031117,64 132,64 Z M132,198.55 C156.594785,198.55 178.277669,202.571559 197.664533,211.454073 C205.698027,215.134793 209.226647,224.631039 205.545927,232.664533 C201.911216,240.597608 192.605458,244.137728 184.637395,240.68058 L184.335467,240.545927 C169.48216,233.740562 152.279734,230.55 132,230.55 C85.5306211,230.55 47.5075801,252.375307 34.9661424,287.675501 L34.853,288 L139,288 C147.731359,288 154.829205,294.993901 154.996964,303.685129 L155,304 C155,312.731359 148.006099,319.829205 139.314871,319.996964 L139,320 L26.72,320 C9.10551928,320 -2.25813228,303.361266 1.82500315,286.880314 C15.5842112,231.679029 69.067871,198.55 132,198.55 Z"></path>
        </g>
    </g>
</svg>