<?xml version="1.0" encoding="UTF-8"?>
<svg width="513px" height="352px" viewBox="0 0 513 352" version="1.1" xmlns="http://www.w3.org/2000/svg" xmlns:xlink="http://www.w3.org/1999/xlink">
    <!-- Generator: Sketch 63.1 (92452) - https://sketch.com -->
    <title>planet-outline</title>
    <desc>Created with Sketch.</desc>
    <g id="Page-1" stroke="none" stroke-width="1" fill="none" fill-rule="evenodd">
        <g id="planet-outline" fill="#000000" fill-rule="nonzero">
            <path d="M31.3317376,13.7288689 C40.6919395,11.6659902 51.9784668,11.5019453 65.1452895,13.0159933 C88.9424876,15.7524241 119.388643,24.080977 154.134044,37.2209699 L156.565088,38.1455104 L145.134912,68.0344896 C111.673225,55.2380351 82.8000514,47.2569747 61.4897105,44.8065067 L60.0849602,44.6519099 C50.8127545,43.6780094 43.4025429,43.8365267 38.2188874,44.9789436 C36.1109306,45.4435125 34.580313,46.0253306 33.6150641,46.6185 C33.3846669,46.7600848 33.2220799,46.8804272 33.1137299,46.9768709 L33.06,47.026 L33.0267851,47.2743293 C32.9555136,47.8840973 33.0027133,48.7830493 33.2352327,49.9754729 C33.8945489,53.3566272 35.8090335,57.8816185 39.0432758,63.2724141 C46.2784872,75.3319763 59.2215656,90.2989612 76.9647875,106.952467 C114.280557,141.976456 169.762788,181.74329 232.678308,217.99685 C295.593398,254.250161 357.842062,282.319303 406.894964,297.056625 L408.94311,297.666403 C431.361608,304.279486 450.099492,307.773196 463.774835,307.988228 C470.078388,308.087345 474.971664,307.477482 478.246229,306.352357 C479.308688,305.987301 480.079077,305.61001 480.585437,305.26343 L480.827082,305.08634 L480.926,305.008 L480.943555,304.931785 C480.967283,304.815465 480.986583,304.660439 480.996609,304.461201 L481.002314,304.303396 C481.028932,303.143026 480.750607,301.486525 480.067414,299.379483 C478.308225,293.953952 474.315843,286.918472 468.161726,278.736028 C455.122746,261.399547 433.497235,240.318155 405.415302,217.70192 L404.466278,216.938997 L424.493722,191.981003 C454.946013,216.417324 478.71883,239.535114 493.735774,259.501472 C501.846819,270.285826 507.509978,280.265594 510.507273,289.50958 C514.225019,300.975513 513.976994,311.787616 508.638869,321.023041 C500.645657,334.837639 484.686862,340.321005 463.271728,339.984272 C445.791643,339.709415 423.601723,335.488964 397.687536,327.703375 C346.084811,312.199991 281.626199,283.13434 216.701692,245.72315 C151.776371,208.311491 94.3233404,167.132088 55.0652125,130.285033 C35.3479844,111.778756 20.5864836,94.7090023 11.6029742,79.7353984 C0.589916258,61.3789675 -2.63949843,44.8176433 5.36252383,30.9845522 C10.6348749,21.876046 19.7328159,16.2851352 31.3317376,13.7288689 Z M257,0 C354.202116,0 433,78.797884 433,176 C433,273.202116 354.202116,352 257,352 C159.797884,352 81,273.202116 81,176 C81,78.797884 159.797884,0 257,0 Z M257,32 C177.470996,32 113,96.470996 113,176 C113,255.529004 177.470996,320 257,320 C336.529004,320 401,255.529004 401,176 C401,96.470996 336.529004,32 257,32 Z"></path>
        </g>
    </g>
</svg>